<?xml version="1.0" encoding="utf-8"?>
<!-- Generator: Adobe Illustrator 25.0.1, SVG Export Plug-In . SVG Version: 6.00 Build 0)  -->
<svg version="1.1" id="Capa_1" xmlns="http://www.w3.org/2000/svg" xmlns:xlink="http://www.w3.org/1999/xlink" x="0px" y="0px"
	 viewBox="0 0 200 200" style="enable-background:new 0 0 200 200;" xml:space="preserve">
<style type="text/css">
	.st0{fill-rule:evenodd;clip-rule:evenodd;fill:#FFFFFF;}
</style>
<g id="SVGRepo_bgCarrier">
</g>
<g id="SVGRepo_tracerCarrier">
</g>
<g id="SVGRepo_iconCarrier">
	<desc>Created with Sketch.</desc>
	<g id="Page-1">
		<g id="Dribbble-Light-Preview" transform="translate(-140.000000, -7559.000000)">
			<g id="icons" transform="translate(56.000000, 160.000000)">
				<path id="github-_x5B__x23_ffffff_x5D_" class="st0" d="M184,7399c55.2,0,100,45.9,100,102.5c0,45.3-28.6,83.7-68.3,97.3
					c-5.1,1-6.9-2.2-6.9-4.9c0-3.4,0.1-14.4,0.1-28.1c0-9.6-3.2-15.8-6.8-19c22.3-2.5,45.7-11.2,45.7-50.6
					c0-11.2-3.9-20.3-10.3-27.5c1-2.6,4.5-13-1-27.1c0,0-8.4-2.7-27.5,10.5c-8-2.3-16.6-3.4-25.1-3.5c-8.5,0-17.1,1.2-25,3.5
					c-19.1-13.3-27.5-10.5-27.5-10.5c-5.4,14.1-2,24.6-1,27.1c-6.4,7.2-10.3,16.3-10.3,27.5c0,39.3,23.4,48.1,45.6,50.7
					c-2.9,2.6-5.5,7.1-6.4,13.7c-5.7,2.6-20.2,7.2-29.1-8.5c0,0-5.3-9.9-15.3-10.6c0,0-9.8-0.1-0.7,6.2c0,0,6.6,3.1,11.1,15
					c0,0,5.9,18.3,33.7,12.1c0,8.6,0.1,16.7,0.1,19.1c0,2.7-1.8,5.9-6.8,4.9c-39.7-13.5-68.4-52-68.4-97.3
					C84,7444.9,128.8,7399,184,7399"/>
			</g>
		</g>
	</g>
</g>
</svg>
