<?xml version="1.0" encoding="utf-8"?>
<!-- Generator: Adobe Illustrator 25.0.1, SVG Export Plug-In . SVG Version: 6.00 Build 0)  -->
<svg version="1.1" id="Capa_1" xmlns="http://www.w3.org/2000/svg" xmlns:xlink="http://www.w3.org/1999/xlink" x="0px" y="0px"
	 viewBox="0 0 200 200" style="enable-background:new 0 0 200 200;" xml:space="preserve">
<style type="text/css">
	.st0{clip-path:url(#SVGID_2_);}
	.st1{fill:#4285F4;}
	.st2{fill:#34A853;}
	.st3{fill:#FBBC04;}
	.st4{fill:#EA4335;}
	.st5{fill:#C5221F;}
</style>
<g>
	<defs>
		<rect id="SVGID_1_" y="25" width="200" height="150"/>
	</defs>
	<clipPath id="SVGID_2_">
		<use xlink:href="#SVGID_1_"  style="overflow:visible;"/>
	</clipPath>
	<g class="st0">
		<path class="st1" d="M13.6,175h31.8V97.7L0,63.6v97.7C0,168.9,6.1,175,13.6,175z"/>
		<path class="st2" d="M154.5,175h31.8c7.5,0,13.6-6.1,13.6-13.6V63.6l-45.5,34.1"/>
		<path class="st3" d="M154.5,38.6v59.1L200,63.6V45.5c0-16.9-19.2-26.5-32.7-16.4"/>
		<path class="st4" d="M45.5,97.7V38.6L100,79.5l54.5-40.9v59.1L100,138.6"/>
		<path class="st5" d="M0,45.5v18.2l45.5,34.1V38.6l-12.7-9.5C19.2,19,0,28.6,0,45.5"/>
	</g>
</g>
</svg>
