<?xml version="1.0" encoding="utf-8"?>
<!-- Generator: Adobe Illustrator 25.0.1, SVG Export Plug-In . SVG Version: 6.00 Build 0)  -->
<svg version="1.1" id="Capa_1" xmlns="http://www.w3.org/2000/svg" xmlns:xlink="http://www.w3.org/1999/xlink" x="0px" y="0px"
	 viewBox="0 0 200 200" style="enable-background:new 0 0 200 200;" xml:space="preserve">
<style type="text/css">
	.st0{fill:#05BDBA;}
	.st1{fill:#014847;}
</style>
<path class="st0" d="M54,158.6h-1.9l-9.4-9.4v-1.9l14.4-14.4h10l1.3,1.3v10L54,158.6z M42.7,52v-1.9l9.4-9.4H54l14.4,14.4v10
	l-1.3,1.3h-10L42.7,52z"/>
<path class="st1" d="M125.7,128.2H112l-1.1-1.1V95c0-5.7-2.2-10.1-9.1-10.3c-3.5-0.1-7.6,0-11.9,0.2l-0.7,0.7V127l-1.1,1.1H74.3
	l-1.1-1.1V72.2l1.1-1.1h30.9c12,0,21.7,9.7,21.7,21.7v34.3L125.7,128.2L125.7,128.2z"/>
<path class="st0" d="M56,107.6H1.1L0,106.5V92.8l1.1-1.1H56l1.1,1.1v13.7L56,107.6z M198.9,107.6H144l-1.1-1.1V92.8l1.1-1.1h54.9
	l1.1,1.1v13.7L198.9,107.6z M92.1,53.9V12.8l1.1-1.1H107l1.1,1.1v41.1l-1.1,1.1H93.2L92.1,53.9z M92.1,186.5v-41.1l1.1-1.1H107
	l1.1,1.1v41.1l-1.1,1.1H93.2L92.1,186.5z"/>
</svg>
